<svg width="25" height="25" viewBox="0 0 25 25" fill="none" xmlns="http://www.w3.org/2000/svg">
<path d="M18.75 3.125C19.5788 3.125 20.3737 3.45424 20.9597 4.04029C21.5458 4.62634 21.875 5.4212 21.875 6.25V18.75C21.875 19.5788 21.5458 20.3737 20.9597 20.9597C20.3737 21.5458 19.5788 21.875 18.75 21.875H6.25C5.4212 21.875 4.62634 21.5458 4.04029 20.9597C3.45424 20.3737 3.125 19.5788 3.125 18.75V6.25C3.125 5.4212 3.45424 4.62634 4.04029 4.04029C4.62634 3.45424 5.4212 3.125 6.25 3.125H18.75ZM18.75 5.20833H6.25C5.97373 5.20833 5.70878 5.31808 5.51343 5.51343C5.31808 5.70878 5.20833 5.97373 5.20833 6.25V18.75C5.20833 19.0263 5.31808 19.2912 5.51343 19.4866C5.70878 19.6819 5.97373 19.7917 6.25 19.7917H18.75C19.0263 19.7917 19.2912 19.6819 19.4866 19.4866C19.6819 19.2912 19.7917 19.0263 19.7917 18.75V6.25C19.7917 5.97373 19.6819 5.70878 19.4866 5.51343C19.2912 5.31808 19.0263 5.20833 18.75 5.20833ZM8.33333 10.4167C8.58847 10.4167 8.83473 10.5104 9.02539 10.6799C9.21605 10.8495 9.33786 11.0831 9.36771 11.3365L9.375 11.4583V16.6667C9.37471 16.9322 9.27304 17.1875 9.09078 17.3806C8.90852 17.5736 8.65942 17.6898 8.39438 17.7054C8.12934 17.7209 7.86835 17.6347 7.66476 17.4643C7.46116 17.2939 7.33032 17.0522 7.29896 16.7885L7.29167 16.6667V11.4583C7.29167 11.1821 7.40141 10.9171 7.59676 10.7218C7.79211 10.5264 8.05707 10.4167 8.33333 10.4167ZM11.4583 9.375C11.7023 9.37496 11.9385 9.46055 12.1258 9.61684C12.3131 9.77312 12.4397 9.9902 12.4833 10.2302C12.6931 10.109 12.9098 10.0002 13.1323 9.90417C13.8271 9.60729 14.8677 9.44375 15.8073 9.73854C16.3 9.89479 16.7948 10.1865 17.1615 10.6833C17.4896 11.126 17.6667 11.6646 17.7021 12.2698L17.7083 12.5V16.6667C17.708 16.9322 17.6064 17.1875 17.4241 17.3806C17.2419 17.5736 16.9928 17.6898 16.7277 17.7054C16.4627 17.7209 16.2017 17.6347 15.9981 17.4643C15.7945 17.2939 15.6636 17.0522 15.6323 16.7885L15.625 16.6667V12.5C15.625 12.1562 15.5417 11.9958 15.4875 11.9219C15.4097 11.8253 15.3025 11.7566 15.1823 11.726C14.8198 11.6115 14.2979 11.6719 13.951 11.8198C13.4302 12.0427 12.9531 12.3927 12.6281 12.7167L12.5 12.8542V16.6667C12.4997 16.9322 12.398 17.1875 12.2158 17.3806C12.0335 17.5736 11.7844 17.6898 11.5194 17.7054C11.2543 17.7209 10.9934 17.6347 10.7898 17.4643C10.5862 17.2939 10.4553 17.0522 10.424 16.7885L10.4167 16.6667V10.4167C10.4167 10.1404 10.5264 9.87545 10.7218 9.6801C10.9171 9.48475 11.1821 9.375 11.4583 9.375ZM8.33333 7.29167C8.6096 7.29167 8.87455 7.40141 9.0699 7.59676C9.26525 7.79211 9.375 8.05707 9.375 8.33333C9.375 8.6096 9.26525 8.87455 9.0699 9.0699C8.87455 9.26525 8.6096 9.375 8.33333 9.375C8.05707 9.375 7.79211 9.26525 7.59676 9.0699C7.40141 8.87455 7.29167 8.6096 7.29167 8.33333C7.29167 8.05707 7.40141 7.79211 7.59676 7.59676C7.79211 7.40141 8.05707 7.29167 8.33333 7.29167Z" fill="#E7EAEB"/>
</svg>
