<svg width="14" height="14" viewBox="0 0 14 14" fill="none" xmlns="http://www.w3.org/2000/svg">
<path d="M7.00004 13.4167C10.5438 13.4167 13.4167 10.5438 13.4167 7.00004C13.4167 3.45629 10.5438 0.583374 7.00004 0.583374M7.00004 13.4167C3.45629 13.4167 0.583374 10.5438 0.583374 7.00004C0.583374 3.45629 3.45629 0.583374 7.00004 0.583374M7.00004 13.4167C8.75004 13.4167 9.33337 10.5 9.33337 7.00004C9.33337 3.50004 8.75004 0.583374 7.00004 0.583374M7.00004 13.4167C5.25004 13.4167 4.66671 10.5 4.66671 7.00004C4.66671 3.50004 5.25004 0.583374 7.00004 0.583374M1.16671 9.33337H12.8334M1.16671 4.66671H12.8334" stroke="#E92A34"/>
</svg>
